# Blender 4.1.1
# www.blender.org
mtllib selectWall.mtl
o 立方体.002
v -1.645544 1.124612 -0.011311
v 1.691201 1.124612 -0.011311
v -1.645544 1.124612 0.048689
v 1.691201 1.124612 0.048689
v -1.645544 0.944612 -0.011311
v 1.691201 0.944612 -0.011311
v -1.645544 0.944612 0.048689
v 1.691201 0.944612 0.048689
v -1.621854 1.130497 -0.011311
v -1.621854 -0.306248 -0.011311
v -1.621854 1.130497 0.048689
v -1.621854 -0.306248 0.048689
v -1.801854 1.130497 -0.011311
v -1.801854 -0.306248 -0.011311
v -1.801854 1.130497 0.048689
v -1.801854 -0.306248 0.048689
v 1.824281 1.130497 -0.011311
v 1.824281 -0.306248 -0.011311
v 1.824281 1.130497 0.048689
v 1.824281 -0.306248 0.048689
v 1.644281 1.130497 -0.011311
v 1.644281 -0.306248 -0.011311
v 1.644281 1.130497 0.048689
v 1.644281 -0.306248 0.048689
v -1.645544 -0.112118 -0.011311
v 1.691201 -0.112118 -0.011311
v -1.645544 -0.112118 0.048689
v 1.691201 -0.112118 0.048689
v -1.645544 -0.292118 -0.011311
v 1.691201 -0.292118 -0.011311
v -1.645544 -0.292118 0.048689
v 1.691201 -0.292118 0.048689
vn -0.0000 1.0000 -0.0000
vn -0.0000 -0.0000 1.0000
vn -0.0000 -1.0000 -0.0000
vn -0.0000 -0.0000 -1.0000
vn -1.0000 -0.0000 -0.0000
vn 1.0000 -0.0000 -0.0000
vt 0.375000 0.250000
vt 0.625000 0.000000
vt 0.375000 0.000000
vt 0.375000 0.500000
vt 0.625000 0.250000
vt 0.375000 0.750000
vt 0.625000 0.500000
vt 0.375000 1.000000
vt 0.625000 0.750000
vt 0.125000 0.750000
vt 0.125000 0.500000
vt 0.875000 0.500000
vt 0.625000 1.000000
vt 0.875000 0.750000
s 0
f 3/1/1 2/2/1 1/3/1
f 7/4/2 4/5/2 3/1/2
f 5/6/3 8/7/3 7/4/3
f 1/8/4 6/9/4 5/6/4
f 1/10/5 7/4/5 3/11/5
f 6/9/6 4/12/6 8/7/6
f 11/1/6 10/2/6 9/3/6
f 15/4/2 12/5/2 11/1/2
f 13/6/5 16/7/5 15/4/5
f 9/8/4 14/9/4 13/6/4
f 9/10/1 15/4/1 11/11/1
f 14/9/3 12/12/3 16/7/3
f 19/1/6 18/2/6 17/3/6
f 23/4/2 20/5/2 19/1/2
f 21/6/5 24/7/5 23/4/5
f 17/8/4 22/9/4 21/6/4
f 17/10/1 23/4/1 19/11/1
f 22/9/3 20/12/3 24/7/3
f 27/1/1 26/2/1 25/3/1
f 31/4/2 28/5/2 27/1/2
f 29/6/3 32/7/3 31/4/3
f 25/8/4 30/9/4 29/6/4
f 25/10/5 31/4/5 27/11/5
f 30/9/6 28/12/6 32/7/6
f 3/1/1 4/5/1 2/2/1
f 7/4/2 8/7/2 4/5/2
f 5/6/3 6/9/3 8/7/3
f 1/8/4 2/13/4 6/9/4
f 1/10/5 5/6/5 7/4/5
f 6/9/6 2/14/6 4/12/6
f 11/1/6 12/5/6 10/2/6
f 15/4/2 16/7/2 12/5/2
f 13/6/5 14/9/5 16/7/5
f 9/8/4 10/13/4 14/9/4
f 9/10/1 13/6/1 15/4/1
f 14/9/3 10/14/3 12/12/3
f 19/1/6 20/5/6 18/2/6
f 23/4/2 24/7/2 20/5/2
f 21/6/5 22/9/5 24/7/5
f 17/8/4 18/13/4 22/9/4
f 17/10/1 21/6/1 23/4/1
f 22/9/3 18/14/3 20/12/3
f 27/1/1 28/5/1 26/2/1
f 31/4/2 32/7/2 28/5/2
f 29/6/3 30/9/3 32/7/3
f 25/8/4 26/13/4 30/9/4
f 25/10/5 29/6/5 31/4/5
f 30/9/6 26/14/6 28/12/6
